<?xml version="1.0" encoding="utf-8"?>
<!-- Generator: Adobe Illustrator 25.4.1, SVG Export Plug-In . SVG Version: 6.00 Build 0)  -->
<svg version="1.1" id="Layer_1" xmlns="http://www.w3.org/2000/svg" xmlns:xlink="http://www.w3.org/1999/xlink" x="0px" y="0px"
	 viewBox="0 0 90 90" style="enable-background:new 0 0 90 90;" xml:space="preserve">
<style type="text/css">
	.st0{fill:#505050;}
</style>
<path class="st0" d="M30,9C18.4,9,9,18.4,9,30v30c0,11.6,9.4,21,21,21h30c11.6,0,21-9.4,21-21V30c0-11.6-9.4-21-21-21H30z M66,21
	c1.7,0,3,1.3,3,3s-1.3,3-3,3s-3-1.3-3-3S64.3,21,66,21z M45,27c9.9,0,18,8.1,18,18s-8.1,18-18,18s-18-8.1-18-18S35.1,27,45,27z
	 M45,33c-6.6,0-12,5.4-12,12s5.4,12,12,12s12-5.4,12-12S51.6,33,45,33z"/>
</svg>
