<svg xmlns="http://www.w3.org/2000/svg" viewBox="0 0 306.46 78.04"><defs><style>.cls-1{fill:#fff;}.cls-2{fill:#ed2024;}.cls-3{fill:#fff200;}.cls-4{fill:none;stroke:#ed2024;stroke-linecap:round;stroke-miterlimit:10;}</style></defs><g id="Layer_1" data-name="Layer 1"><path class="cls-1" d="M158.16,396.23c3.23-.14,6.45-.4,9.64-.86a80.48,80.48,0,0,0,9.45-2l4.71-1.2q2.39-.56,4.77-1c3.19-.6,6.35-1.21,9.46-2s6.3-1.59,9.48-2.24c1.59-.33,3.2-.63,4.82-.86a35.17,35.17,0,0,0,4.67-.84,43.65,43.65,0,0,0,4.47-1.54c1.47-.59,2.84-1.33,4.3-2.09a21,21,0,0,1,4.67-1.85,24.94,24.94,0,0,1,5-.82c1.69-.05,3.24,0,4.85-.07s3.19-.19,4.78-.38c3.19-.36,6.35-1,9.53-1.57s6.34-1.24,9.5-1.93a59.37,59.37,0,0,1,9.6-1.71,30.85,30.85,0,0,1,4.9.09,43.12,43.12,0,0,0,4.82.26c3.23,0,6.44-.14,9.67-.39,1.62-.12,3.25-.19,4.88-.18a33,33,0,0,1,4.88.36c3.21.39,6.42.7,9.64,1s6.43.47,9.68.67,6.47.6,9.7,1.11c6.38,1.07,12.76,1.93,19.2,2.69a45.45,45.45,0,0,1,4.86,1c1.59.39,3.18.87,4.73,1.4s3,1.09,4.55,1.5a34.19,34.19,0,0,0,4.61.92,16,16,0,0,0,2.28.15c.75,0,1.55-.08,2.39-.11,1.66-.06,3.32,0,4.95.11a64,64,0,0,1,9.75,1.32,76.47,76.47,0,0,0,9.48,1.46c3.17.33,6.46.36,9.73,1A77.31,77.31,0,0,1,425,394,109.53,109.53,0,0,0,443.33,400a99.16,99.16,0,0,0,19.12,2.75v.2a94.75,94.75,0,0,1-19.35-2,105.33,105.33,0,0,1-18.68-5.62,93.07,93.07,0,0,0-9-3.52,66.79,66.79,0,0,0-9.26-2.34c-3.1-.54-6.32-.57-9.59-.89a81.05,81.05,0,0,1-9.7-1.46,62.78,62.78,0,0,0-9.47-1.24,47,47,0,0,0-4.74-.09c-.79,0-1.59.1-2.46.1a19.39,19.39,0,0,1-2.56-.19,36.94,36.94,0,0,1-4.89-1c-1.61-.46-3.15-1.05-4.66-1.58s-3-1-4.55-1.41a43.23,43.23,0,0,0-4.64-1c-6.4-.8-12.84-1.8-19.21-3-3.15-.55-6.36-1-9.55-1.31s-6.45-.56-9.67-.94-6.43-.75-9.64-1.21a38.54,38.54,0,0,0-9.6-.34c-3.22.22-6.48.39-9.73.31-1.62,0-3.25-.08-4.87-.25a29.46,29.46,0,0,0-4.79,0,56.39,56.39,0,0,0-9.46,1.82c-3.14.79-6.31,1.52-9.46,2.22s-6.34,1.41-9.58,1.87c-1.62.23-3.24.4-4.87.53s-3.32.14-4.86.19a23.49,23.49,0,0,0-4.59.8,19.87,19.87,0,0,0-4.32,1.75,47.68,47.68,0,0,1-4.41,2.2,38.92,38.92,0,0,1-4.71,1.59,36,36,0,0,1-4.88.82c-1.59.21-3.16.48-4.74.79-3.17.61-6.28,1.33-9.44,2.12s-6.4,1.26-9.58,1.78c-1.59.26-3.17.55-4.75.88l-4.73,1.06a75.36,75.36,0,0,1-19.33,2Z" transform="translate(-157.01 -373.08)"/><path class="cls-1" d="M157,411.64a90.75,90.75,0,0,0,10.94,0,89.35,89.35,0,0,0,10.82-1.36c1.79-.34,3.57-.72,5.31-1.19s3.45-1.06,5.18-1.67c3.44-1.23,6.91-2.4,10.38-3.56s7-2.28,10.48-3.33,6.85-2.44,10.23-3.74,6.78-2.84,10.31-3.93a46.08,46.08,0,0,1,5.36-1.47c1.8-.37,3.57-.75,5.35-1.16,3.56-.83,7.11-1.69,10.64-2.61a96.17,96.17,0,0,1,10.73-2.52,91.77,91.77,0,0,1,11-1c3.65-.12,7.33-.24,11-.18s7.31,0,11,0,7.29-.39,11-.33a69.79,69.79,0,0,1,11,1c3.63.61,7.22,1.34,10.8,2.1l.08,0c5.56,1.38,11.32,2.71,17,4s11.38,2.59,17.08,3.82,11.42,2.31,17.14,3.56,11.42,2.51,17.11,3.84,11.37,2.54,17.08,3.69c1.43.28,2.86.55,4.31.87a28.67,28.67,0,0,1,4.31,1.26c1.39.53,2.76,1.1,4.1,1.77s2.61,1.41,3.86,2.13a66.9,66.9,0,0,0,7.8,3.8c2.67,1.13,5.39,2.16,8.15,3.07a85.75,85.75,0,0,0,17,3.78l0,.2a84.8,84.8,0,0,1-17.27-3.08c-2.81-.83-5.59-1.79-8.33-2.85A68.18,68.18,0,0,1,429.8,413c-1.3-.7-2.55-1.41-3.84-2s-2.62-1.14-4-1.63a50.58,50.58,0,0,0-8.4-1.9c-5.75-1-11.5-2.14-17.2-3.49s-11.38-2.55-17.08-3.76-11.44-2.32-17.15-3.63c-11.42-2.6-22.7-5.31-34.1-8.36l.08,0c-7.13-1.59-14.22-3.46-21.49-3.66-3.62-.14-7.29.11-11,.09s-7.32,0-11-.07c-1.83,0-3.65-.06-5.48,0s-3.65.14-5.47.23a89.87,89.87,0,0,0-10.88,1.08,93.39,93.39,0,0,0-10.55,2.81q-5.28,1.55-10.6,2.92c-1.77.47-3.56.91-5.34,1.33s-3.46.94-5.19,1.51c-3.45,1.11-6.75,2.59-10.16,4-1.7.7-3.43,1.35-5.16,2s-3.47,1.23-5.24,1.76c-3.53,1-7,2.08-10.48,3.2l-10.43,3.4c-1.75.56-3.51,1.12-5.32,1.56s-3.61.76-5.43,1.06a79.29,79.29,0,0,1-22,.46Z" transform="translate(-157.01 -373.08)"/><path class="cls-1" d="M402.81,414.79a8.53,8.53,0,0,0-2-.28,28,28,0,0,0-3.28,0l.05-.1,0-.11a6.72,6.72,0,0,1,5.3-.79,8,8,0,0,1,2.91,1.28c.23.16.39.29.5.38a9.17,9.17,0,0,1,2.32,2.87,8.38,8.38,0,0,1,.61,6.38,9.44,9.44,0,0,1-.69-.77c-2.28-2.88-1.51-5.62-3.28-7.5A4.59,4.59,0,0,0,402.81,414.79Z" transform="translate(-157.01 -373.08)"/></g><g id="Car"><path class="cls-2" d="M403.12,432.94a15.11,15.11,0,0,1-1.05,5.79,16,16,0,0,1-3.1,5.09,16.51,16.51,0,0,1-4.83,3.75,16.05,16.05,0,0,1-6.06,1.68,16.23,16.23,0,0,1-16.15-9.62,16.44,16.44,0,0,1,0-13.39,16.23,16.23,0,0,1,16.16-9.62,16.43,16.43,0,0,1,14,10.53A15.11,15.11,0,0,1,403.12,432.94Zm-.3,0a14.68,14.68,0,1,0-4.34,10.4A14.74,14.74,0,0,0,402.82,432.94Z" transform="translate(-157.01 -373.08)"/><path class="cls-2" d="M230.66,433.57a15.93,15.93,0,0,1,21.13-15,16.26,16.26,0,0,1,5.51,3.3,15.9,15.9,0,1,1-26.64,11.74Zm0,0a13.88,13.88,0,1,0,14.89-13.89,13.85,13.85,0,0,0-5.47.69,13.92,13.92,0,0,0-9.42,13.2Z" transform="translate(-157.01 -373.08)"/><path class="cls-2" d="M189.11,450.26,435.42,450" transform="translate(-157.01 -373.08)"/><path class="cls-2" d="M189.11,450.17c10.26-.37,20.52-.55,30.78-.69s20.53-.22,30.79-.09,20.53.4,30.79.46,20.53-.07,30.79-.25,20.53-.35,30.79-.42,20.53-.17,30.79-.15c20.53.08,41.05.28,61.58.88a.1.1,0,0,1,.1.1.11.11,0,0,1-.1.1c-20.52.64-41.05.89-61.58,1-10.26,0-20.52,0-30.79-.09s-20.52-.18-30.79-.36-20.52-.25-30.79-.18-20.52.37-30.78.52-20.53,0-30.79,0-20.53-.27-30.79-.62a.1.1,0,0,1-.1-.1A.09.09,0,0,1,189.11,450.17Z" transform="translate(-157.01 -373.08)"/><path class="cls-3" d="M220,416.42" transform="translate(-157.01 -373.08)"/><path class="cls-4" d="M218.41,436.87c-3.15-4.55-5.59-8.44-7.35-11.37a11.69,11.69,0,0,1-2-4.73c-.5-3.75,1.28-8.14,4.45-9.9.48-.27.48-.19,4.29-1.15,3.18-.81,4.77-1.21,6.38-1.69,3.16-.95,5.77-2,9.25-3.38l2.1-.85c.54-.23,1-.45,1.79-.74,0,0,.49-.19,1-.37,2.49-.86,7.92-2.11,7.92-2.11,2.66-.62,2.58-.64,7.92-1.93l3.65-.89,1.37-.33,3.65-.89c9.73-2.37,23.16-3,23.16-3a132.09,132.09,0,0,1,21.06.54h0a70.4,70.4,0,0,1,18.2,4.55c11.86,4.43,12,6.18,20.24,8.22a81.64,81.64,0,0,0,8.82,1.54c10.7,1.52,14.39,1,27.44,2.09,9.64.81,13.81,1.62,16.9,2.35,11.84,2.78,14.42,5.93,15.36,7.26,2.09,3,2.64,6.49,3.28,10.6.56,3.63.83,5.47-.07,7.3-2.36,4.79-10.4,4.82-11.33,4.82" transform="translate(-157.01 -373.08)"/><path class="cls-3" d="M202,425.88" transform="translate(-157.01 -373.08)"/><path class="cls-3" d="M213.37,419.31a8.26,8.26,0,0,0,.41,1.89c.24.77.58,1.83,1.1,3.08a1.41,1.41,0,0,1-.22-.06c-2-.67-3.39-4.61-2.39-7.78a6.54,6.54,0,0,1,2-3.09,7.21,7.21,0,0,1,5.67-1.43,5.71,5.71,0,0,1-.47.76c-1.87,2.52-4.65,2.18-5.77,4.08A3.65,3.65,0,0,0,213.37,419.31Z" transform="translate(-157.01 -373.08)"/></g></svg>