<?xml version="1.0" encoding="utf-8"?>
<!-- Generator: Adobe Illustrator 25.4.1, SVG Export Plug-In . SVG Version: 6.00 Build 0)  -->
<svg version="1.1" id="Layer_1" xmlns="http://www.w3.org/2000/svg" xmlns:xlink="http://www.w3.org/1999/xlink" x="0px" y="0px"
	 viewBox="0 0 70 87.5" style="enable-background:new 0 0 70 87.5;" xml:space="preserve">
<style type="text/css">
	.st0{fill:#FF0000;}
</style>
<path class="st0" d="M57.8,38c-1.7,0-3,1.4-3,3c0,1.7,1.4,3,3,3c1.7,0,3-1.3,3-3C60.8,39.4,59.5,38,57.8,38z M57.8,42.1
	c-0.6,0-1-0.5-1-1c0-0.6,0.5-1,1-1c0.6,0,1,0.5,1,1S58.4,42.1,57.8,42.1z"/>
<path class="st0" d="M15.4,37.9c-1.7,0-3.2,1.4-3.2,3.2c0,1.7,1.4,3.1,3.2,3.1s3.1-1.4,3.1-3.1C18.6,39.3,17.2,37.9,15.4,37.9z
	 M15.4,42.2c-0.6,0-1.2-0.5-1.2-1.1s0.5-1.2,1.2-1.2c0.6,0,1.1,0.5,1.1,1.2C16.6,41.7,16.1,42.2,15.4,42.2z"/>
<path class="st0" d="M67,22.3h-8.5c-0.6,0-1,0.4-1,1v9.5c-0.3-0.2-0.7-0.3-1-0.4c-1.3-0.5-4.6-1.7-5.8-2.5L45,26.2
	c-0.2-0.1-0.4-0.2-0.5-0.2H41c-0.6,0-1,0.4-1,1v5.1c0,0.2-0.1,0.4-0.1,0.5l-1,1.7c0,0.1-0.1,0.1-0.2,0.1H32l-3.4-3.1
	c-0.4-0.4-1-0.3-1.4,0l-0.8,0.8c-0.6,0.6-1.3,1-2.1,1.1c-2.1,0.5-4.3,1-6.4,1.6c-0.8-0.3-1.6-0.5-2.4-0.5c-2.4,0-4.6,1.3-5.7,3.3
	c-2.5,1-4.7,2.1-6.6,3.2c-0.9,0.5-1.3,1.5-1.1,2.4C2.3,44.2,3,44.9,4,45l6.6,0.7c1.2,1.3,2.9,2,4.8,2c1.6,0,3.1-0.6,4.2-1.5h33.9
	c1.2,1,2.6,1.5,4.2,1.5c3.7,0,6.6-3,6.6-6.6c0-0.6-0.1-1.2-0.2-1.8l3.5-3.7c0.2-0.2,0.3-0.4,0.3-0.7V23.3C68,22.7,67.6,22.3,67,22.3
	z M66,24.3v3.2h-6.5v-3.2H66z M24.7,35.2c1.1-0.2,2.2-0.8,3-1.7l0.1-0.1l2.9,2.7c0.2,0.2,0.4,0.3,0.7,0.3h7.1c0.8,0,1.5-0.4,1.9-1.1
	l1-1.7c0.3-0.5,0.4-1,0.4-1.6v-4H44l5.4,3.6c1.7,1.1,6.1,2.7,6.3,2.8c0.1,0,0.1,0,0.2,0c0.2,0,0.3,0.1,0.5,0.2
	c-3,0.6-5.3,3.3-5.3,6.5c0,1.1,0.3,2.2,0.8,3.1H21.3c0.5-0.9,0.8-2,0.8-3.1c0-1.8-0.8-3.5-2-4.7C21.6,35.9,23.2,35.5,24.7,35.2z
	 M4.2,43c0,0-0.2,0-0.2-0.2c0-0.1,0-0.2,0.1-0.3c1.4-0.8,3-1.6,4.7-2.4c0,0.3-0.1,0.6-0.1,0.9c0,0.9,0.2,1.7,0.5,2.4L4.2,43z
	 M12,44.2c-0.1-0.1-0.1-0.2-0.2-0.2c-0.6-0.8-1-1.8-1-2.9c0-2.6,2.1-4.7,4.7-4.7s4.6,2.1,4.6,4.7c0,2.6-2.1,4.6-4.6,4.6
	C14.1,45.7,12.9,45.1,12,44.2z M57.8,45.7c-2.6,0-4.7-2.1-4.7-4.6c0-2.6,2.1-4.7,4.7-4.7c0.6,0,1.2,0.1,1.7,0.3l0,0
	c1.7,0.7,2.9,2.4,2.9,4.3C62.4,43.6,60.3,45.7,57.8,45.7z M63.3,37.3c-0.7-1.1-1.8-1.9-3-2.4l-0.8-0.7v-4.7H66v5L63.3,37.3z"/>
</svg>
