<?xml version="1.0" encoding="utf-8"?>
<!-- Generator: Adobe Illustrator 25.4.1, SVG Export Plug-In . SVG Version: 6.00 Build 0)  -->
<svg version="1.1" id="Layer_1" xmlns="http://www.w3.org/2000/svg" xmlns:xlink="http://www.w3.org/1999/xlink" x="0px" y="0px"
	 viewBox="0 0 100 125" style="enable-background:new 0 0 100 125;" xml:space="preserve">
<style type="text/css">
	.st0{fill:#FF0000;}
</style>
<path class="st0" d="M91.2,39.2c-1.7,0-3.1,1.4-3.1,3.1v10.3h-5.2V34c0-3.3-2.7-6-6-6H59.7v-4.7H70c1.7,0,3.1-1.4,3.1-3.1
	s-1.4-3.1-3.1-3.1H43.2c-1.7,0-3.1,1.4-3.1,3.1s1.4,3.1,3.1,3.1h10.3V28H41c0,0-2.7-0.1-4.2,0.3c-1.6,0.5-3.2,2.5-3.2,2.5L26,38.6
	h-4c-3.3,0-6,2.7-6,6v8h-4V42.3c0-1.7-1.4-3.1-3.1-3.1s-3.1,1.4-3.1,3.1v26.9c0,1.7,1.4,3.1,3.1,3.1s3.1-1.4,3.1-3.1V58.9h4v8.2
	c0,3.3,2.7,6,6,6h3l8.4,7c0,0,1.7,1.4,3.8,2.1c1.9,0.6,5.3,0.8,5.3,0.8h22.4c0,0,1.2,0,2.1-0.4s1.4-1.3,1.4-1.3l6.3-8.1h2.2
	c3.3,0,6-2.7,6-6V59H88v10.3c0,1.7,1.4,3.1,3.1,3.1s3.1-1.4,3.1-3.1v-27C94.3,40.6,92.9,39.2,91.2,39.2 M43.9,73l5.5-16.1H42
	l9.7-19.2h11.4l-7.8,16h7.9L43.9,73z"/>
</svg>
