<?xml version="1.0" encoding="utf-8"?>
<!-- Generator: Adobe Illustrator 25.4.1, SVG Export Plug-In . SVG Version: 6.00 Build 0)  -->
<svg version="1.1" id="Layer_1" xmlns="http://www.w3.org/2000/svg" xmlns:xlink="http://www.w3.org/1999/xlink" x="0px" y="0px"
	 viewBox="0 0 32 40" style="enable-background:new 0 0 32 40;" xml:space="preserve">
<style type="text/css">
	.st0{fill:#FF0000;}
</style>
<path class="st0" d="M15.1,17.2c0.4-0.7,0.8-1.4,0.9-2.2l2-0.4v-1.8l-2-0.4c-0.2-0.8-0.5-1.6-0.9-2.2l1.1-1.7L15,7.2l-1.7,1.1
	c-0.7-0.4-1.4-0.8-2.2-0.9l-0.4-2H9l-0.4,2C7.8,7.6,7.1,8,6.4,8.4L4.7,7.2L3.5,8.5l1.1,1.7c-0.4,0.7-0.8,1.4-0.9,2.2l-2,0.4v1.8
	l2,0.4c0.2,0.8,0.5,1.6,0.9,2.2l-1.1,1.7l1.3,1.3l1.7-1.1c0.7,0.4,1.4,0.8,2.2,0.9l0.4,2h1.8l0.4-2c0.8-0.2,1.6-0.5,2.2-0.9l1.7,1.1
	l1.3-1.3L15.1,17.2z M9.9,17.7c-2.2,0-4.1-1.8-4.1-4.1s1.8-4.1,4.1-4.1c2.2,0,4.1,1.8,4.1,4.1S12.1,17.7,9.9,17.7z"/>
<path class="st0" d="M28.8,11.4l1.5-0.3V9.7l-1.5-0.3c-0.1-0.6-0.4-1.2-0.7-1.7L29,6.5l-1-1l-1.2,0.9c-0.5-0.3-1.1-0.6-1.7-0.7
	l-0.3-1.5h-1.4l-0.3,1.5c-0.6,0.1-1.2,0.4-1.7,0.7l-1.2-0.9l-1,1l0.9,1.2c-0.3,0.5-0.6,1.1-0.7,1.7l-1.5,0.3v1.4l1.5,0.3
	c0.1,0.6,0.4,1.2,0.7,1.7l-0.9,1.2l1,1l1.2-0.9c0.5,0.3,1.1,0.6,1.7,0.7l0.3,1.5h1.4l0.3-1.5c0.6-0.1,1.2-0.4,1.7-0.7l1.2,0.9l1-1
	L28.1,13C28.5,12.5,28.7,12,28.8,11.4z M24.2,13.5c-1.7,0-3-1.4-3-3c0-1.7,1.4-3,3-3c1.7,0,3,1.4,3,3S25.9,13.5,24.2,13.5z"/>
<path class="st0" d="M24.9,20.8l0.9-0.9l-0.7-1l-1.2,0.5c-0.4-0.4-0.8-0.6-1.3-0.8v-1.3l-1.1-0.2L21,18.3c-0.5,0-1,0.1-1.5,0.3
	l-0.9-0.9l-1,0.7l0.5,1.2c-0.4,0.4-0.6,0.8-0.8,1.3H16L15.8,22l1.2,0.5c0,0.5,0.1,1,0.3,1.5l-0.8,1l0.7,1l1.2-0.5
	c0.4,0.4,0.8,0.6,1.3,0.8v1.3l1.1,0.2l0.5-1.2c0.5,0,1-0.1,1.5-0.3l0.9,0.9l1-0.7l-0.5-1.2c0.4-0.4,0.6-0.8,0.8-1.3h1.3l0.2-1.1
	l-1.2-0.5C25.2,21.8,25.1,21.3,24.9,20.8z M22.6,24.6c-1.2,0.8-2.8,0.5-3.7-0.6c-0.8-1.2-0.5-2.8,0.6-3.7c1.2-0.8,2.8-0.5,3.7,0.6
	C24.1,22.1,23.8,23.7,22.6,24.6z"/>
</svg>
