<?xml version="1.0" encoding="utf-8"?>
<!-- Generator: Adobe Illustrator 25.4.1, SVG Export Plug-In . SVG Version: 6.00 Build 0)  -->
<svg version="1.1" id="Layer_1" xmlns="http://www.w3.org/2000/svg" xmlns:xlink="http://www.w3.org/1999/xlink" x="0px" y="0px"
	 viewBox="0 0 700 700" style="enable-background:new 0 0 700 700;" xml:space="preserve">
<style type="text/css">
	.st0{fill:#FF0000;}
</style>
<g>
	<path class="st0" d="M508.4,132.5l-47.3,47.3L419.3,138l47.3-47.3c5.8-5.8,9-13,9-20.4s-3.2-14.6-8.9-20.3
		c-11.5-11.5-29.2-11.5-40.7,0l-47.3,47.3l-29.2-29.2c-6.1-6.1-18.1-6.1-24.2,0l-16.5,16.5c-3.1,3.1-4.8,7.5-4.8,12.1
		c0,4.6,1.8,9.1,4.8,12.1l1.6,1.6l-62.2,62.2c-18.8,18.8-18.8,49.4,0,68.2l8.2,7.4c0.4,0.9,0.9,1.7,1.6,2.4l11.1,11.1l-7.1,7.2
		c-9.6,9.6-11.5,22.4-5.6,33.2l-16.4,16.4c-6.4,6.4-6.4,17.8,0,24.2l1.7,1.7c-43.9,43.8-63.4,63.4-70.6,73l-1.2-1.2
		c-32.9,32.8-30.7,60.1-23,77.2c6.3,14.1,16.5,24.1,30.4,29.6c20.6,8,39.8,2.7,64.3-17.6c6.5-5.3,13.9-12.4,22-20.1l5-4.8
		c41.9-40.2,76.5-68.9,108.2-42.7c11.4,9.5,18.2,20.8,20.1,33.5c7.3,50.5-63.7,110-64.4,110.6c-4,3.3-4.5,9.2-1.2,13.1
		c1.8,2.2,4.5,3.4,7.2,3.4c2.1,0,4.2-0.7,5.9-2.1c3.3-2.7,79.8-66.9,71-127.6c-2.5-17.5-11.5-32.7-26.6-45.2
		c-47.1-38.9-96.8,8.9-133,43.6l-5,4.8c-7.7,7.4-14.8,14.1-21,19.2c-24.5,20.2-36.5,18.1-45.6,14.6c-9.4-3.7-15.8-10.1-20.2-19.9
		c-7.7-17.4-1.5-35.8,19.2-56.4c0.1-0.1,0.1-0.1,0.2-0.2c3.1-3.1,53.8-53.8,71.7-71.6l1.6,1.6c6.1,6.1,18.2,6.1,24.2,0l16.4-16.4
		c10.7,5.7,23.9,3.5,33.2-5.6l6-8.2l7.3,7.3c0,0,0,0,0.1,0l14.7,14.7c9.1,9.1,21.2,14.1,34.1,14.1c12.9,0,25-5,34.1-14.1l62.2-62.2
		l1.6,1.6c6.1,6.1,18.1,6.1,24.2,0l16.5-16.5c3.1-3,4.8-7.4,4.8-12.1c0-4.6-1.7-9.1-4.8-12.1l-26.7-26.6l-2.5-2.5l47.3-47.3
		c5.8-5.8,9-13,9-20.4s-3.2-14.6-8.9-20.4C537.6,121,519.9,121,508.4,132.5L508.4,132.5z M439.1,63.2c3.1-3.2,11.1-3.2,14.3,0
		c1.6,1.6,3.5,4.1,3.5,7.1s-1.9,5.6-3.5,7.2l-47.3,47.3l-14.3-14.3L439.1,63.2z M269.6,346l-7.9-6.9c-0.2-0.3-0.4-0.7-0.7-1
		c-0.6-0.6-1.3-1-2-1.4l-5.9-5.1l15.4-15.4l14.7,14.7L269.6,346z M316.9,324c-3.2,3.1-11.2,3.1-14.3,0l-27.5-27.5
		c-4.6-4.6-4.6-9.7,0-14.3l7.1-7.2l41.8,41.8L316.9,324z M413.2,337.8c-11.1,11.1-30.7,11.2-41.8,0l-22-22c0,0,0,0-0.1,0l-66-66
		l-22-22c-11.5-11.6-11.5-30.3,0-41.8l62.2-62.2l151.9,151.9L413.2,337.8z M503.5,277.2L327.3,101.1c-1.2-1.2-2.6-1.8-4.1-2.2
		l-1.3-1l14.3-16.5l25.7,25.7l141.5,141.5c1.1,1.1,2.4,1.7,3.7,2.2l10.7,10L503.5,277.2z M535.9,160.1l-47.3,47.3l-14.3-14.3
		l47.3-47.3c3.1-3.1,11.1-3.2,14.3,0c1.6,1.6,3.5,4.1,3.5,7.2C539.4,156,537.5,158.5,535.9,160.1L535.9,160.1z"/>
	<path class="st0" d="M349.4,190c-3.6-3.6-9.6-3.6-13.2,0s-3.6,9.5,0,13.2L391,258c1.8,1.8,4.2,2.7,6.6,2.7s4.8-0.9,6.6-2.7
		c3.6-3.6,3.6-9.5,0-13.2L349.4,190z"/>
	<path class="st0" d="M324.7,214.6c-3.6-3.6-9.6-3.6-13.2,0s-3.6,9.5,0,13.2l54.9,54.9c1.8,1.8,4.2,2.7,6.6,2.7s4.8-0.9,6.6-2.7
		c3.6-3.6,3.6-9.5,0-13.2L324.7,214.6z"/>
</g>
</svg>
