<?xml version="1.0" encoding="utf-8"?>
<!-- Generator: Adobe Illustrator 25.4.1, SVG Export Plug-In . SVG Version: 6.00 Build 0)  -->
<svg version="1.1" id="Layer_1" xmlns="http://www.w3.org/2000/svg" xmlns:xlink="http://www.w3.org/1999/xlink" x="0px" y="0px"
	 viewBox="0 0 100 125" style="enable-background:new 0 0 100 125;" xml:space="preserve">
<style type="text/css">
	.st0{fill:#FF0000;}
</style>
<g>
	<path class="st0" d="M9.3,14.9c1.2,4.3,5.6,6.8,9.9,5.7L77.2,5H15C10.7,6.2,8.2,10.6,9.3,14.9z"/>
	<path class="st0" d="M90.7,85.1c-1.2-4.3-5.6-6.8-9.9-5.7L22.8,95H85C89.3,93.8,91.8,89.4,90.7,85.1z"/>
	<path class="st0" d="M85,25.9L19.2,43.6c-4.3,1.2-8.7-1.4-9.9-5.7s1.4-8.7,5.7-9.9l65.8-17.6c4.3-1.2,8.7,1.4,9.9,5.7
		C91.8,20.4,89.3,24.8,85,25.9z"/>
	<path class="st0" d="M85,49L19.2,66.6c-4.3,1.2-8.7-1.4-9.9-5.7s1.4-8.7,5.7-9.9l65.8-17.6c4.3-1.2,8.7,1.4,9.9,5.7
		C91.8,43.4,89.3,47.8,85,49z"/>
	<path class="st0" d="M85,72L19.2,89.6c-4.3,1.2-8.7-1.4-9.9-5.7s1.4-8.7,5.7-9.9l65.8-17.6c4.3-1.2,8.7,1.4,9.9,5.7
		C91.8,66.4,89.3,70.8,85,72z"/>
</g>
</svg>
